<?xml version="1.0" encoding="UTF-8"?>
<svg xmlns="http://www.w3.org/2000/svg" xmlns:xlink="http://www.w3.org/1999/xlink" viewBox="-94.67 -94.67 911.60 473.33" width="911.60" height="473.33" font-family="Inter, system-ui, sans-serif"><defs><marker id="mv-arrow" viewBox="0 0 10 10" refX="10" refY="5" markerWidth="6" markerHeight="6" orient="auto-start-reverse"><path d="M 0 0 L 10 5 L 0 10 Z" fill="#6b7280"/></marker></defs><rect x="0" y="0" width="911.60" height="473.33" fill="#ffffff"/><g class="mv-flow-node" data-node-id="0" data-layer-type="Conv2d"><title>0: Conv2d</title><rect x="117.47" y="111.87" width="10.00" height="224.00" fill="#7f8cff" stroke="#3946b8" stroke-width="1.0"/><rect x="116.07" y="113.27" width="10.00" height="224.00" fill="#6b77d8" stroke="#3946b8" stroke-width="1.0"/><rect x="114.67" y="114.67" width="10.00" height="224.00" fill="#7f8cff" stroke="#3946b8" stroke-width="1.0"/></g><line x1="199.33" y1="40.00" x2="209.33" y2="40.00" stroke="#6070d0" stroke-width="1.0" fill="none"/><line x1="199.33" y1="264.00" x2="209.33" y2="264.00" stroke="#6070d0" stroke-width="1.0" fill="none"/><line x1="124.67" y1="114.67" x2="134.67" y2="114.67" stroke="#6070d0" stroke-width="1.0" fill="none"/><line x1="124.67" y1="338.67" x2="134.67" y2="338.67" stroke="#6070d0" stroke-width="1.0" fill="none"/><g class="mv-flow-node" data-node-id="1" data-layer-type="ReLU"><title>1: ReLU</title><rect x="137.47" y="111.87" width="10.00" height="224.00" fill="#a8b3ff" stroke="#6070d0" stroke-width="1.0"/><rect x="136.07" y="113.27" width="10.00" height="224.00" fill="#8e98d8" stroke="#6070d0" stroke-width="1.0"/><rect x="134.67" y="114.67" width="10.00" height="224.00" fill="#a8b3ff" stroke="#6070d0" stroke-width="1.0"/></g><line x1="219.33" y1="40.00" x2="229.33" y2="40.00" stroke="#3946b8" stroke-width="1.0" fill="none"/><line x1="219.33" y1="264.00" x2="229.33" y2="264.00" stroke="#3946b8" stroke-width="1.0" fill="none"/><line x1="144.67" y1="114.67" x2="154.67" y2="114.67" stroke="#3946b8" stroke-width="1.0" fill="none"/><line x1="144.67" y1="338.67" x2="154.67" y2="338.67" stroke="#3946b8" stroke-width="1.0" fill="none"/><g class="mv-flow-node" data-node-id="2" data-layer-type="Conv2d"><title>2: Conv2d</title><rect x="157.47" y="111.87" width="10.00" height="224.00" fill="#7f8cff" stroke="#3946b8" stroke-width="1.0"/><rect x="156.07" y="113.27" width="10.00" height="224.00" fill="#6b77d8" stroke="#3946b8" stroke-width="1.0"/><rect x="154.67" y="114.67" width="10.00" height="224.00" fill="#7f8cff" stroke="#3946b8" stroke-width="1.0"/></g><line x1="239.33" y1="40.00" x2="249.33" y2="40.00" stroke="#6070d0" stroke-width="1.0" fill="none"/><line x1="239.33" y1="264.00" x2="249.33" y2="264.00" stroke="#6070d0" stroke-width="1.0" fill="none"/><line x1="164.67" y1="114.67" x2="174.67" y2="114.67" stroke="#6070d0" stroke-width="1.0" fill="none"/><line x1="164.67" y1="338.67" x2="174.67" y2="338.67" stroke="#6070d0" stroke-width="1.0" fill="none"/><g class="mv-flow-node" data-node-id="3" data-layer-type="ReLU"><title>3: ReLU</title><rect x="177.47" y="111.87" width="10.00" height="224.00" fill="#a8b3ff" stroke="#6070d0" stroke-width="1.0"/><rect x="176.07" y="113.27" width="10.00" height="224.00" fill="#8e98d8" stroke="#6070d0" stroke-width="1.0"/><rect x="174.67" y="114.67" width="10.00" height="224.00" fill="#a8b3ff" stroke="#6070d0" stroke-width="1.0"/></g><line x1="259.33" y1="40.00" x2="232.00" y2="133.33" stroke="#1e2ba8" stroke-width="1.0" fill="none"/><line x1="259.33" y1="264.00" x2="232.00" y2="245.33" stroke="#1e2ba8" stroke-width="1.0" fill="none"/><line x1="184.67" y1="114.67" x2="194.67" y2="170.67" stroke="#1e2ba8" stroke-width="1.0" fill="none"/><line x1="184.67" y1="338.67" x2="194.67" y2="282.67" stroke="#1e2ba8" stroke-width="1.0" fill="none"/><g class="mv-flow-node" data-node-id="4" data-layer-type="MaxPool2d"><title>4: MaxPool2d</title><rect x="196.07" y="169.27" width="10.00" height="112.00" fill="#3e4ed8" stroke="#1e2ba8" stroke-width="1.0"/><rect x="194.67" y="170.67" width="10.00" height="112.00" fill="#4a5cff" stroke="#1e2ba8" stroke-width="1.0"/></g><line x1="242.00" y1="133.33" x2="252.00" y2="133.33" stroke="#3946b8" stroke-width="1.0" fill="none"/><line x1="242.00" y1="245.33" x2="252.00" y2="245.33" stroke="#3946b8" stroke-width="1.0" fill="none"/><line x1="204.67" y1="170.67" x2="214.67" y2="170.67" stroke="#3946b8" stroke-width="1.0" fill="none"/><line x1="204.67" y1="282.67" x2="214.67" y2="282.67" stroke="#3946b8" stroke-width="1.0" fill="none"/><g class="mv-flow-node" data-node-id="5" data-layer-type="Conv2d"><title>5: Conv2d</title><rect x="216.46" y="168.87" width="12.80" height="112.00" fill="#6b77d8" stroke="#3946b8" stroke-width="1.0"/><rect x="214.67" y="170.67" width="12.80" height="112.00" fill="#7f8cff" stroke="#3946b8" stroke-width="1.0"/></g><line x1="264.80" y1="133.33" x2="274.80" y2="133.33" stroke="#6070d0" stroke-width="1.0" fill="none"/><line x1="264.80" y1="245.33" x2="274.80" y2="245.33" stroke="#6070d0" stroke-width="1.0" fill="none"/><line x1="227.47" y1="170.67" x2="237.47" y2="170.67" stroke="#6070d0" stroke-width="1.0" fill="none"/><line x1="227.47" y1="282.67" x2="237.47" y2="282.67" stroke="#6070d0" stroke-width="1.0" fill="none"/><g class="mv-flow-node" data-node-id="6" data-layer-type="ReLU"><title>6: ReLU</title><rect x="239.26" y="168.87" width="12.80" height="112.00" fill="#8e98d8" stroke="#6070d0" stroke-width="1.0"/><rect x="237.47" y="170.67" width="12.80" height="112.00" fill="#a8b3ff" stroke="#6070d0" stroke-width="1.0"/></g><line x1="287.60" y1="133.33" x2="297.60" y2="133.33" stroke="#3946b8" stroke-width="1.0" fill="none"/><line x1="287.60" y1="245.33" x2="297.60" y2="245.33" stroke="#3946b8" stroke-width="1.0" fill="none"/><line x1="250.27" y1="170.67" x2="260.27" y2="170.67" stroke="#3946b8" stroke-width="1.0" fill="none"/><line x1="250.27" y1="282.67" x2="260.27" y2="282.67" stroke="#3946b8" stroke-width="1.0" fill="none"/><g class="mv-flow-node" data-node-id="7" data-layer-type="Conv2d"><title>7: Conv2d</title><rect x="262.06" y="168.87" width="12.80" height="112.00" fill="#6b77d8" stroke="#3946b8" stroke-width="1.0"/><rect x="260.27" y="170.67" width="12.80" height="112.00" fill="#7f8cff" stroke="#3946b8" stroke-width="1.0"/></g><line x1="310.40" y1="133.33" x2="320.40" y2="133.33" stroke="#6070d0" stroke-width="1.0" fill="none"/><line x1="310.40" y1="245.33" x2="320.40" y2="245.33" stroke="#6070d0" stroke-width="1.0" fill="none"/><line x1="273.07" y1="170.67" x2="283.07" y2="170.67" stroke="#6070d0" stroke-width="1.0" fill="none"/><line x1="273.07" y1="282.67" x2="283.07" y2="282.67" stroke="#6070d0" stroke-width="1.0" fill="none"/><g class="mv-flow-node" data-node-id="8" data-layer-type="ReLU"><title>8: ReLU</title><rect x="284.86" y="168.87" width="12.80" height="112.00" fill="#8e98d8" stroke="#6070d0" stroke-width="1.0"/><rect x="283.07" y="170.67" width="12.80" height="112.00" fill="#a8b3ff" stroke="#6070d0" stroke-width="1.0"/></g><line x1="333.20" y1="133.33" x2="324.53" y2="180.00" stroke="#1e2ba8" stroke-width="1.0" fill="none"/><line x1="333.20" y1="245.33" x2="324.53" y2="236.00" stroke="#1e2ba8" stroke-width="1.0" fill="none"/><line x1="295.87" y1="170.67" x2="305.87" y2="198.67" stroke="#1e2ba8" stroke-width="1.0" fill="none"/><line x1="295.87" y1="282.67" x2="305.87" y2="254.67" stroke="#1e2ba8" stroke-width="1.0" fill="none"/><g class="mv-flow-node" data-node-id="9" data-layer-type="MaxPool2d"><title>9: MaxPool2d</title><rect x="305.87" y="198.67" width="12.80" height="56.00" fill="#4a5cff" stroke="#1e2ba8" stroke-width="1.0"/></g><line x1="337.33" y1="180.00" x2="347.33" y2="180.00" stroke="#3946b8" stroke-width="1.0" fill="none"/><line x1="337.33" y1="236.00" x2="347.33" y2="236.00" stroke="#3946b8" stroke-width="1.0" fill="none"/><line x1="318.67" y1="198.67" x2="328.67" y2="198.67" stroke="#3946b8" stroke-width="1.0" fill="none"/><line x1="318.67" y1="254.67" x2="328.67" y2="254.67" stroke="#3946b8" stroke-width="1.0" fill="none"/><g class="mv-flow-node" data-node-id="10" data-layer-type="Conv2d"><title>10: Conv2d</title><rect x="328.67" y="198.67" width="25.60" height="56.00" fill="#7f8cff" stroke="#3946b8" stroke-width="1.0"/></g><line x1="372.93" y1="180.00" x2="382.93" y2="180.00" stroke="#6070d0" stroke-width="1.0" fill="none"/><line x1="372.93" y1="236.00" x2="382.93" y2="236.00" stroke="#6070d0" stroke-width="1.0" fill="none"/><line x1="354.27" y1="198.67" x2="364.27" y2="198.67" stroke="#6070d0" stroke-width="1.0" fill="none"/><line x1="354.27" y1="254.67" x2="364.27" y2="254.67" stroke="#6070d0" stroke-width="1.0" fill="none"/><g class="mv-flow-node" data-node-id="11" data-layer-type="ReLU"><title>11: ReLU</title><rect x="364.27" y="198.67" width="25.60" height="56.00" fill="#a8b3ff" stroke="#6070d0" stroke-width="1.0"/></g><line x1="408.53" y1="180.00" x2="418.53" y2="180.00" stroke="#3946b8" stroke-width="1.0" fill="none"/><line x1="408.53" y1="236.00" x2="418.53" y2="236.00" stroke="#3946b8" stroke-width="1.0" fill="none"/><line x1="389.87" y1="198.67" x2="399.87" y2="198.67" stroke="#3946b8" stroke-width="1.0" fill="none"/><line x1="389.87" y1="254.67" x2="399.87" y2="254.67" stroke="#3946b8" stroke-width="1.0" fill="none"/><g class="mv-flow-node" data-node-id="12" data-layer-type="Conv2d"><title>12: Conv2d</title><rect x="399.87" y="198.67" width="25.60" height="56.00" fill="#7f8cff" stroke="#3946b8" stroke-width="1.0"/></g><line x1="444.13" y1="180.00" x2="454.13" y2="180.00" stroke="#6070d0" stroke-width="1.0" fill="none"/><line x1="444.13" y1="236.00" x2="454.13" y2="236.00" stroke="#6070d0" stroke-width="1.0" fill="none"/><line x1="425.47" y1="198.67" x2="435.47" y2="198.67" stroke="#6070d0" stroke-width="1.0" fill="none"/><line x1="425.47" y1="254.67" x2="435.47" y2="254.67" stroke="#6070d0" stroke-width="1.0" fill="none"/><g class="mv-flow-node" data-node-id="13" data-layer-type="ReLU"><title>13: ReLU</title><rect x="435.47" y="198.67" width="25.60" height="56.00" fill="#a8b3ff" stroke="#6070d0" stroke-width="1.0"/></g><line x1="479.73" y1="180.00" x2="480.40" y2="203.33" stroke="#1e2ba8" stroke-width="1.0" fill="none"/><line x1="479.73" y1="236.00" x2="480.40" y2="231.33" stroke="#1e2ba8" stroke-width="1.0" fill="none"/><line x1="461.07" y1="198.67" x2="471.07" y2="212.67" stroke="#1e2ba8" stroke-width="1.0" fill="none"/><line x1="461.07" y1="254.67" x2="471.07" y2="240.67" stroke="#1e2ba8" stroke-width="1.0" fill="none"/><g class="mv-flow-node" data-node-id="14" data-layer-type="MaxPool2d"><title>14: MaxPool2d</title><rect x="471.07" y="212.67" width="25.60" height="28.00" fill="#4a5cff" stroke="#1e2ba8" stroke-width="1.0"/></g><line x1="506.00" y1="203.33" x2="507.00" y2="221.33" stroke="#0e7490" stroke-width="1.0" fill="none"/><line x1="506.00" y1="231.33" x2="507.00" y2="231.33" stroke="#0e7490" stroke-width="1.0" fill="none"/><line x1="496.67" y1="212.67" x2="506.67" y2="221.67" stroke="#0e7490" stroke-width="1.0" fill="none"/><line x1="496.67" y1="240.67" x2="506.67" y2="231.67" stroke="#0e7490" stroke-width="1.0" fill="none"/><g class="mv-flow-node" data-node-id="15" data-layer-type="Flatten"><title>15: Flatten</title><rect x="506.67" y="221.67" width="120.00" height="10.00" fill="#67e8f9" stroke="#0e7490" stroke-width="1.0"/></g><line x1="627.00" y1="221.33" x2="637.00" y2="221.33" stroke="#0891b2" stroke-width="1.0" fill="none"/><line x1="627.00" y1="231.33" x2="637.00" y2="231.33" stroke="#0891b2" stroke-width="1.0" fill="none"/><line x1="626.67" y1="221.67" x2="636.67" y2="221.67" stroke="#0891b2" stroke-width="1.0" fill="none"/><line x1="626.67" y1="231.67" x2="636.67" y2="231.67" stroke="#0891b2" stroke-width="1.0" fill="none"/><g class="mv-flow-node" data-node-id="16" data-layer-type="Linear"><title>16: Linear</title><rect x="636.67" y="221.67" width="12.80" height="10.00" fill="#22d3ee" stroke="#0891b2" stroke-width="1.0"/></g><line x1="649.80" y1="221.33" x2="659.80" y2="221.33" stroke="#6070d0" stroke-width="1.0" fill="none"/><line x1="649.80" y1="231.33" x2="659.80" y2="231.33" stroke="#6070d0" stroke-width="1.0" fill="none"/><line x1="649.47" y1="221.67" x2="659.47" y2="221.67" stroke="#6070d0" stroke-width="1.0" fill="none"/><line x1="649.47" y1="231.67" x2="659.47" y2="231.67" stroke="#6070d0" stroke-width="1.0" fill="none"/><g class="mv-flow-node" data-node-id="17" data-layer-type="ReLU"><title>17: ReLU</title><rect x="659.47" y="221.67" width="12.80" height="10.00" fill="#a8b3ff" stroke="#6070d0" stroke-width="1.0"/></g><line x1="672.60" y1="221.33" x2="682.60" y2="221.33" stroke="#0891b2" stroke-width="1.0" fill="none"/><line x1="672.60" y1="231.33" x2="682.60" y2="231.33" stroke="#0891b2" stroke-width="1.0" fill="none"/><line x1="672.27" y1="221.67" x2="682.27" y2="221.67" stroke="#0891b2" stroke-width="1.0" fill="none"/><line x1="672.27" y1="231.67" x2="682.27" y2="231.67" stroke="#0891b2" stroke-width="1.0" fill="none"/><g class="mv-flow-node" data-node-id="18" data-layer-type="Linear"><title>18: Linear</title><rect x="682.27" y="221.67" width="10.00" height="10.00" fill="#22d3ee" stroke="#0891b2" stroke-width="1.0"/></g></svg>
